IKResults
version=1
nRows=41
nColumns=24
inDegrees=yes

Units are S.I. units (second, meters, Newtons, ...)
If the header above contains a line with 'inDegrees', this indicates whether rotational values are in degrees (yes) or radians (no).

endheader
time	pelvis_tilt	pelvis_list	pelvis_rotation	pelvis_tx	pelvis_ty	pelvis_tz	hip_flexion_r	hip_adduction_r	hip_rotation_r	knee_angle_r	ankle_angle_r	subtalar_angle_r	mtp_angle_r	hip_flexion_l	hip_adduction_l	hip_rotation_l	knee_angle_l	ankle_angle_l	subtalar_angle_l	mtp_angle_l	lumbar_extension	lumbar_bending	lumbar_rotation
0.300000	10.362006	1.564289	-180.305324	0.213382	0.850622	-1.201406	15.523296	-10.450524	-33.705585	-10.640809	-0.445579	9.121771	0.000000	15.242366	-13.667785	-33.010970	-10.200806	1.486139	15.346892	0.000000	6.786482	1.336619	-1.080540
0.305000	10.363462	1.557353	-180.286722	0.213414	0.850634	-1.201440	15.523193	-10.457471	-33.676367	-10.639348	-0.449541	9.128821	0.000000	15.253758	-13.657861	-32.992252	-10.194929	1.492670	15.365068	0.000000	6.781345	1.324162	-1.126326
0.310000	10.364111	1.556782	-180.288725	0.213424	0.850656	-1.201437	15.526318	-10.456634	-33.678840	-10.637690	-0.445560	9.124731	0.000000	15.254251	-13.657019	-32.990634	-10.196653	1.490839	15.367786	0.000000	6.778577	1.326767	-1.126825
0.315000	10.364278	1.568042	-180.295451	0.213420	0.850676	-1.201424	15.534495	-10.447795	-33.694383	-10.649959	-0.428416	9.106272	0.000000	15.244752	-13.665765	-32.986870	-10.179831	1.479485	15.377731	0.000000	6.779750	1.343788	-1.108577
0.320000	10.362256	1.568030	-180.299445	0.213446	0.850649	-1.201422	15.535610	-10.447180	-33.696570	-10.649893	-0.426833	9.100570	0.000000	15.250904	-13.670292	-32.987560	-10.200111	1.477895	15.379453	0.000000	6.775985	1.347156	-1.092820
0.325000	10.363503	1.563055	-180.304073	0.213470	0.850622	-1.201417	15.537010	-10.451385	-33.694098	-10.646524	-0.428362	9.100991	0.000000	15.252227	-13.666211	-32.988947	-10.205466	1.478789	15.379926	0.000000	6.773418	1.356408	-1.098168
0.330000	10.363268	1.554572	-180.304615	0.213483	0.850605	-1.201407	15.538775	-10.460794	-33.679668	-10.645573	-0.445855	9.103551	0.000000	15.259585	-13.662048	-33.004118	-10.221821	1.487150	15.377113	0.000000	6.765874	1.360609	-1.125968
0.335000	10.363505	1.555196	-180.304514	0.213491	0.850635	-1.201380	15.539599	-10.460334	-33.679645	-10.645366	-0.445952	9.103618	0.000000	15.258932	-13.661748	-33.004148	-10.222307	1.487089	15.377201	0.000000	6.765590	1.360438	-1.125522
0.340000	10.356668	1.568819	-180.317964	0.213508	0.850686	-1.201380	15.537796	-10.444160	-33.691461	-10.648836	-0.443994	9.099238	0.000000	15.253616	-13.679654	-33.000934	-10.223828	1.479731	15.378500	0.000000	6.763989	1.366817	-1.049044
0.345000	10.360805	1.604470	-180.338051	0.213558	0.850762	-1.201423	15.569626	-10.407849	-33.762897	-10.709869	-0.525995	9.051783	0.000000	15.261612	-13.722895	-33.012424	-10.227293	1.475556	15.364911	0.000000	6.757768	1.410157	-1.033833
0.350000	10.360189	1.578706	-180.317003	0.213585	0.850725	-1.201453	15.536205	-10.425688	-33.671763	-10.629129	-0.457067	9.089233	0.000000	15.277995	-13.700555	-33.001640	-10.257810	1.502823	15.378552	0.000000	6.741005	1.388484	-1.126615
0.355000	10.359647	1.568403	-180.310983	0.213631	0.850703	-1.201508	15.534750	-10.431936	-33.664025	-10.621927	-0.464407	9.088069	0.000000	15.298397	-13.701408	-32.997823	-10.291828	1.506375	15.382950	0.000000	6.727384	1.373105	-1.153207
0.360000	10.359772	1.567349	-180.309732	0.213631	0.850691	-1.201508	15.535981	-10.430768	-33.664053	-10.621809	-0.464575	9.088060	0.000000	15.297071	-13.701198	-32.997767	-10.292997	1.506377	15.383078	0.000000	6.727076	1.372854	-1.153010
0.365000	10.347372	1.570314	-180.317133	0.213647	0.850682	-1.201457	15.537776	-10.435195	-33.667953	-10.644567	-0.460949	9.079554	0.000000	15.302138	-13.710570	-32.993654	-10.334599	1.494803	15.378293	0.000000	6.713179	1.374034	-1.108011
0.370000	10.375215	1.617652	-180.361472	0.213673	0.850701	-1.201501	15.602537	-10.381476	-33.738171	-10.711803	-0.518670	9.015981	0.000000	15.329910	-13.778463	-32.995359	-10.353343	1.492595	15.355297	0.000000	6.747685	1.429090	-1.018091
0.375000	10.372791	1.598964	-180.350048	0.213715	0.850654	-1.201503	15.582982	-10.397242	-33.668061	-10.655484	-0.482624	9.048366	0.000000	15.359978	-13.767840	-32.977634	-10.413308	1.497448	15.354370	0.000000	6.737523	1.401563	-1.029464
0.380000	10.374533	1.570996	-180.339475	0.213806	0.850644	-1.201555	15.593017	-10.423916	-33.625742	-10.662665	-0.459188	9.033494	0.000000	15.389482	-13.753483	-32.948305	-10.457185	1.549898	15.363681	0.000000	6.722452	1.360889	-1.071201
0.385000	10.364123	1.559527	-180.325934	0.213875	0.850649	-1.201615	15.585647	-10.434352	-33.601511	-10.667499	-0.473359	9.037146	0.000000	15.413751	-13.756289	-32.931165	-10.512510	1.546373	15.364578	0.000000	6.693720	1.336692	-1.091020
0.390000	10.356186	1.556966	-180.330765	0.213914	0.850679	-1.201617	15.586343	-10.435136	-33.581816	-10.675663	-0.479794	9.023797	0.000000	15.433980	-13.770777	-32.914224	-10.581922	1.599325	15.349971	0.000000	6.668560	1.324845	-1.091235
0.395000	10.342704	1.563712	-180.342510	0.213943	0.850724	-1.201584	15.588417	-10.433131	-33.572646	-10.701157	-0.470362	9.018742	0.000000	15.440466	-13.785866	-32.900902	-10.621159	1.582646	15.338689	0.000000	6.644046	1.331947	-1.055836
0.400000	10.316748	1.589873	-180.376604	0.213990	0.850811	-1.201590	15.614880	-10.417189	-33.644543	-10.811681	-0.519199	8.968601	0.000000	15.432466	-13.831503	-32.890868	-10.676399	1.571960	15.309477	0.000000	6.603235	1.360349	-0.988242
0.405000	10.282925	1.552534	-180.365092	0.214074	0.850803	-1.201673	15.553767	-10.440170	-33.548139	-10.726404	-0.444141	9.002007	0.000000	15.439297	-13.816335	-32.837102	-10.761919	1.630675	15.266177	0.000000	6.550207	1.297645	-0.997247
0.410000	10.264199	1.535195	-180.358602	0.214084	0.850797	-1.201643	15.542749	-10.467779	-33.554378	-10.745836	-0.438907	8.978848	0.000000	15.451001	-13.799973	-32.796111	-10.818375	1.654179	15.183017	0.000000	6.513175	1.287637	-1.030396
0.415000	10.256420	1.533090	-180.349142	0.214156	0.850817	-1.201695	15.549076	-10.470209	-33.537137	-10.766098	-0.440450	8.954567	0.000000	15.492307	-13.812575	-32.695537	-10.903079	1.683535	15.083583	0.000000	6.487802	1.277330	-1.045558
0.420000	10.222311	1.551247	-180.360730	0.214252	0.850837	-1.201738	15.542623	-10.455840	-33.517984	-10.809861	-0.420748	8.944103	0.000000	15.490088	-13.849991	-32.657614	-10.959718	1.664812	15.030601	0.000000	6.473873	1.226691	-0.840109
0.425000	10.221638	1.533774	-180.389645	0.214326	0.850913	-1.201750	15.573410	-10.464749	-33.408797	-10.839418	-0.415535	8.844545	0.000000	15.502154	-13.804638	-32.339670	-10.942582	1.600478	14.512179	0.000000	6.447105	1.218963	-0.832515
0.430000	10.206733	1.542990	-180.400193	0.214409	0.850990	-1.201808	15.600713	-10.463456	-33.491758	-10.931011	-0.504203	8.787783	0.000000	15.535432	-13.842413	-32.326173	-11.045456	1.611775	14.482093	0.000000	6.413306	1.214604	-0.821998
0.435000	10.194008	1.510121	-180.397598	0.214531	0.850919	-1.201879	15.586954	-10.491756	-33.362397	-10.896912	-0.426154	8.832517	0.000000	15.578272	-13.836535	-32.284843	-11.159320	1.670197	14.459342	0.000000	6.383666	1.150861	-0.805498
0.440000	10.171947	1.501548	-180.401772	0.214646	0.850933	-1.201994	15.590071	-10.501010	-33.341968	-10.934589	-0.419777	8.817911	0.000000	15.609519	-13.858856	-32.268501	-11.260512	1.700322	14.422206	0.000000	6.340258	1.120999	-0.802702
0.445000	10.166302	1.523774	-180.436024	0.214757	0.850942	-1.202115	15.624853	-10.474895	-33.301930	-10.990392	-0.395492	8.807200	0.000000	15.648341	-13.920946	-32.246866	-11.366145	1.738715	14.379318	0.000000	6.316751	1.133461	-0.752815
0.450000	10.125384	1.541833	-180.457885	0.214820	0.851119	-1.202178	15.642850	-10.470205	-33.376603	-11.116064	-0.452859	8.725520	0.000000	15.637737	-13.962471	-32.220315	-11.428317	1.691339	14.322012	0.000000	6.246453	1.167745	-0.758364
0.455000	10.104611	1.521939	-180.479184	0.214883	0.851099	-1.202241	15.628802	-10.481641	-33.226535	-11.092148	-0.338939	8.764634	0.000000	15.653319	-13.959455	-32.142723	-11.503392	1.722859	14.227811	0.000000	6.198948	1.150664	-0.770013
0.460000	10.070438	1.517822	-180.474076	0.215014	0.851101	-1.202354	15.626003	-10.495255	-33.202636	-11.151963	-0.353183	8.761588	0.000000	15.674430	-13.983620	-32.090871	-11.604023	1.712841	14.212260	0.000000	6.153211	1.110264	-0.724154
0.465000	10.068686	1.510123	-180.482499	0.215169	0.851104	-1.202479	15.665149	-10.500391	-33.115917	-11.210791	-0.312065	8.668033	0.000000	15.725519	-13.976895	-31.844513	-11.686308	1.825501	13.915071	0.000000	6.113454	1.098960	-0.755166
0.470000	10.041831	1.502001	-180.500781	0.215285	0.851134	-1.202560	15.681452	-10.516084	-33.080907	-11.276939	-0.304702	8.645581	0.000000	15.756236	-14.004111	-31.845416	-11.806274	1.825798	13.823344	0.000000	6.054337	1.078070	-0.754704
0.475000	10.032743	1.506904	-180.531643	0.215413	0.851148	-1.202639	15.735052	-10.521351	-33.023486	-11.381373	-0.251207	8.609320	0.000000	15.805144	-14.042843	-31.782094	-11.928747	1.860588	13.725266	0.000000	6.021016	1.071869	-0.708282
0.480000	10.054486	1.540040	-180.562186	0.215661	0.851171	-1.202696	15.849333	-10.488561	-32.931565	-11.529267	-0.350694	8.298956	0.000000	15.892191	-14.065638	-31.432845	-11.998070	1.816069	13.163754	0.000000	6.017001	1.089311	-0.628322
0.485000	10.020095	1.514123	-180.584571	0.215768	0.851192	-1.202806	15.844422	-10.515923	-32.776208	-11.556055	-0.233292	8.348564	0.000000	15.913590	-14.082812	-31.419582	-12.146855	1.880210	13.133891	0.000000	5.934820	1.075097	-0.680347
0.490000	9.972567	1.501545	-180.611923	0.215965	0.851218	-1.202932	15.876360	-10.548132	-32.719389	-11.695445	-0.192872	8.319973	0.000000	15.942333	-14.110064	-31.368915	-12.299710	1.954145	13.070566	0.000000	5.855088	1.040144	-0.613826
0.495000	9.961262	1.486761	-180.627358	0.216146	0.851233	-1.203048	15.938972	-10.581246	-32.636372	-11.823110	-0.148026	8.280065	0.000000	16.011460	-14.140740	-31.297187	-12.474136	2.030150	13.021010	0.000000	5.792752	1.034240	-0.650559
0.500000	10.023309	1.494328	-180.656348	0.216453	0.851169	-1.203153	16.101024	-10.574546	-32.423782	-11.953642	-0.163486	8.013570	0.000000	16.177277	-14.159691	-30.973630	-12.639200	2.000654	12.518108	0.000000	5.807763	1.049942	-0.641005
